<svg width="58" height="56" viewBox="0 0 58 56" fill="none" xmlns="http://www.w3.org/2000/svg">
<rect width="58" height="56" rx="28" fill="#6070FF"/>
<path d="M27.248 19.32C29.024 19.32 30.576 19.664 31.904 20.352C33.248 21.024 34.28 22 35 23.28C35.736 24.544 36.104 26.024 36.104 27.72C36.104 29.416 35.736 30.888 35 32.136C34.28 33.384 33.248 34.344 31.904 35.016C30.576 35.672 29.024 36 27.248 36H21.8V19.32H27.248ZM27.248 33.768C29.2 33.768 30.696 33.24 31.736 32.184C32.776 31.128 33.296 29.64 33.296 27.72C33.296 25.784 32.776 24.272 31.736 23.184C30.696 22.096 29.2 21.552 27.248 21.552H24.536V33.768H27.248Z" fill="white"/>
</svg>
